<?xml version="1.0" encoding="utf-8"?>
<!DOCTYPE svg PUBLIC "-//W3C//DTD SVG 1.0//EN" "http://www.w3.org/TR/2001/REC-SVG-20010904/DTD/svg10.dtd">
<svg version="1.0" xmlns="http://www.w3.org/2000/svg" width="354px" height="354px" viewBox="0 0 354 354" preserveAspectRatio="xMidYMid meet">
 <g fill="#0b0707">
  <path d="M162 353.4 c-37.1 -4.3 -66.5 -16 -94 -37.3 -35.1 -27.3 -58 -66.3 -66.1 -113.1 -1.7 -9.8 -1.7 -42.2 0 -52 11.3 -64.7 51.2 -114.9 110.1 -138.3 22.1 -8.8 40 -12.1 65 -12.1 9.6 0 21.1 0.6 25.5 1.3 63.9 10.3 115.3 51.1 138.8 110.1 8.8 22.1 12.1 40 12.1 65 0 9.6 -0.6 21.1 -1.3 25.5 -6.2 38.5 -23.6 73 -50.1 99.5 -26 26 -58.6 42.8 -96.5 49.6 -7.8 1.4 -36.5 2.6 -43.5 1.8z m-129.5 -167.9 c3.3 -3.2 3.2 -6.8 -0.1 -9.4 -3.5 -2.8 -5.6 -2.6 -8.8 0.5 -3.3 3.4 -3.3 5.1 0.1 8.6 3.3 3.4 5.7 3.5 8.8 0.3z m304.9 -0.1 c1.4 -1.5 2.6 -3.5 2.6 -4.6 0 -2.5 -4.4 -6.8 -7 -6.8 -2.6 0 -7 4.3 -7 6.8 0 2.5 4.4 7.2 6.8 7.2 1.1 0 3.1 -1.2 4.6 -2.6z"/>
 </g>
 <g fill="#c73533">
  <path d="M174.3 339.8 c1.9 -14.1 1.9 -17.5 0.1 -18.2 -2.9 -1.1 -3.8 1 -4.9 11.2 -1 9.7 -1 9.7 -3.9 10 l-2.9 0.4 0.6 -4.9 c2 -15.9 2 -17.2 0.3 -17.9 -2.9 -1.1 -4 1.3 -5.1 11.4 -1 9.5 -1 9.7 -3.7 10 -3.3 0.4 -3.3 0.5 -1.7 -12.3 0.6 -4.9 1.7 -10 2.5 -11.3 2.3 -3.5 6.3 -4.6 10 -2.9 1.7 0.8 4.2 1.3 5.7 1 4.2 -0.8 7.5 0.5 9.1 3.5 1.2 2.4 1.3 4.6 0.3 13.5 l-1.1 10.7 -2.9 0 c-2.9 0 -2.9 -0.1 -2.4 -4.2z"/>
  <path d="M199.8 339.1 c-2.9 -2.6 -3.3 -3.5 -3.3 -8.1 0 -4.4 0.4 -5.5 2.8 -7.6 3.6 -3.1 7.2 -3.9 10.5 -2.5 2.2 1.1 2.8 1 3.9 -0.5 1 -1.4 1.3 -1.4 1.7 -0.3 1 2.7 3.6 19.3 3.1 19.7 -0.2 0.3 -1.2 -0.1 -2 -0.8 -1.3 -1.1 -1.9 -0.9 -3.8 0.9 -3.4 3.2 -8.9 2.8 -12.9 -0.8z m10.2 -4.1 c1.1 -1.1 2 -2.9 2 -3.9 0 -4.1 -5.9 -6.8 -8.8 -3.9 -1.7 1.7 -1.5 6.4 0.4 8.2 2.1 2.1 4 2 6.4 -0.4z"/>
  <path d="M126.8 335.3 c-3.8 -0.6 -7.8 -5.6 -7.8 -9.9 0 -7 4.1 -11.3 10.8 -11.4 3.5 0 4.9 0.6 7.4 3 3.6 3.6 3.2 4.5 -4.8 9 -6.1 3.4 -6.7 4.4 -2.3 3.8 2.2 -0.4 3.3 0 4 1.5 1.7 3 -1.7 4.8 -7.3 4z m1.7 -12.6 c3.4 -2.3 3.7 -3.7 0.8 -3.7 -1.5 0 -5.3 3.5 -5.3 5 0 1.5 0.7 1.3 4.5 -1.3z"/>
  <path d="M235.6 332.4 c-1 -2.7 -0.8 -3 4.9 -5.3 5.3 -2.2 7.9 -5.1 3.3 -3.6 -8.5 2.7 -12.8 1 -12.8 -5.1 0 -3.7 1.5 -5.1 8.8 -8 3.7 -1.4 4.5 -1.5 5.3 -0.3 1.6 2.6 0.9 3.6 -4.1 5.7 -2.7 1.2 -5 2.6 -5 3.1 0 1.5 1.1 1.4 5.5 -0.5 4.6 -1.9 7.9 -0.8 9.7 3 1.6 3.7 -1.1 7.2 -7.8 10.2 -6.4 2.8 -7 2.9 -7.8 0.8z"/>
  <path d="M97.5 321.6 c-1.7 -1.3 -1.6 -1.8 2.9 -9.5 2.6 -4.4 5.2 -8.3 5.6 -8.6 1.2 -0.7 4 0.5 4 1.8 0 1.2 -8.8 16.5 -9.9 17.2 -0.5 0.2 -1.6 -0.2 -2.6 -0.9z"/>
  <path d="M268.5 313 c-1.2 -0.4 -3.2 -2.4 -4.5 -4.4 -1.5 -2.1 -3.1 -3.4 -3.9 -3.1 -1.9 0.7 -4.2 -2.6 -2.9 -4.2 0.6 -0.8 0.2 -2.1 -1.3 -4.3 -2.2 -2.9 -2.2 -3.1 -0.5 -4.8 1.6 -1.6 1.9 -1.5 4.5 1.7 l2.8 3.4 3.2 -2.2 c3.1 -2.2 3.3 -2.3 4.6 -0.5 1.3 1.7 1.2 2.2 -1.7 4.6 -3 2.6 -3.1 2.8 -1.4 5.2 2.4 3.7 4.9 4.8 7.2 3.1 2.6 -2 3.7 -1.8 5.2 0.5 1.1 1.8 0.9 2.2 -2 4 -3.5 2.1 -6 2.4 -9.3 1z"/>
  <path d="M74 304 l-2.1 -1.6 3.7 -10.2 c2 -5.6 4 -10.2 4.4 -10.2 0.4 0 1.5 0.9 2.4 1.9 1.6 1.8 1.6 2.2 -0.5 7 -1.2 2.9 -1.9 5.4 -1.6 5.7 0.3 0.3 2.6 -0.6 5.2 -2.1 4.1 -2.5 4.9 -2.6 7.1 -1.5 1.3 0.8 2.4 1.7 2.4 2.1 0 0.4 -4.2 3 -9.4 5.7 -8.9 4.6 -9.6 4.7 -11.6 3.2z"/>
  <path d="M109.8 301.9 c-3.9 -2.2 -0.5 -7.9 3.4 -5.8 2.1 1.1 2.4 3.9 0.6 5.7 -1.4 1.4 -1.8 1.4 -4 0.1z"/>
  <path d="M290.4 294.3 c-1.2 -0.2 -3.4 -1.8 -5 -3.4 -2.3 -2.4 -2.9 -3.9 -2.9 -7.5 0 -3.9 0.5 -5 3.3 -7.5 1.8 -1.6 4.3 -2.9 5.7 -2.9 2.6 0 2.6 -0.1 4.3 10 l0.9 5.5 1.4 -3.2 c0.9 -2.4 2 -3.3 3.6 -3.3 4.8 0 1.4 9.2 -4.2 11.6 -1.9 0.8 -3.8 1.3 -4.2 1.3 -0.4 -0.1 -1.8 -0.4 -2.9 -0.6z m1.1 -8.1 c-1.4 -7.1 -1.6 -7.6 -2.6 -6.1 -1.2 2 -1.1 6.3 0.3 7.7 1.5 1.5 2.7 0.7 2.3 -1.6z"/>
  <path d="M54.3 281.3 c-3.3 -0.7 -7.3 -5.9 -7.3 -9.6 0 -8.1 8.4 -13.8 15.5 -10.4 1.9 0.9 4.1 3 5 4.8 4.2 8 -3.8 17.2 -13.2 15.2z m6.8 -6.3 c2.6 -1.5 2.5 -6.4 -0.2 -8.3 -2.6 -1.9 -5.6 -1.1 -7.6 1.9 -1.4 2.2 -1.4 2.6 0.1 4.9 1.7 2.6 4.5 3.2 7.7 1.5z"/>
  <path d="M308.5 265.5 c-3.8 -2.5 -7.4 -4.7 -8 -4.9 -0.5 -0.3 -0.2 -1.1 0.8 -1.9 0.9 -0.8 1.7 -2.2 1.7 -3.1 0 -1.8 2.7 -7.6 3.5 -7.6 0.3 0 1.4 0.5 2.4 1.2 1.8 1.1 1.8 1.4 0.5 4 -2.1 4 -1.2 5.8 4.6 9.3 5.1 3 5.9 4.2 3.8 6.3 -1.6 1.6 -1.4 1.7 -9.3 -3.3z"/>
  <path d="M172.5 256 c-21 -2.3 -38.2 -11.4 -51.8 -27.6 -6.5 -7.7 -13.8 -21.7 -16.1 -30.9 -4.8 -19.3 -1.7 -41.5 8.1 -58.5 5.7 -9.9 20.9 -24.5 30.8 -29.7 25.7 -13.4 55.8 -12.2 79.7 3.2 40.7 26.4 47.8 83.6 14.7 118.9 -6.7 7.2 -18.4 15.7 -26.1 18.9 l-5.3 2.2 26 0.5 c22.2 0.4 26 0.7 26 2 0 1.3 -5.1 1.5 -39.5 1.6 -21.7 0.1 -42.6 -0.2 -46.5 -0.6z m23.2 -4.5 c11.4 -2.1 26 -9.6 35.1 -18 16.1 -15 24.2 -33.4 24.2 -55.6 0 -29.1 -15.4 -53.8 -41.5 -66.4 -12.3 -6 -19.8 -7.8 -32.5 -7.8 -13.2 0 -21.7 2 -33.6 7.8 -24.8 12.3 -39.9 35.5 -41.1 63 -1 22.4 6.1 40.9 21.7 56.5 18.1 18 42.1 25.3 67.7 20.5z"/>
  <path d="M168.1 243.9 c-2.5 -0.5 -6.7 -1.6 -9.5 -2.5 -19.3 -6.3 -35.6 -23.4 -42.2 -44.3 -2.5 -7.7 -3 -24.5 -1 -33.5 5.4 -24 24.9 -44 49.1 -50.2 9 -2.3 23.8 -2.3 32.5 -0.1 23.6 6.1 43 25.7 48.4 48.7 2.3 9.5 2.1 24.9 -0.4 33.9 -8.1 29.2 -34.8 49.4 -64.7 49 -4.3 -0.1 -9.8 -0.5 -12.2 -1z m31.8 -5.6 c24.7 -7.7 42 -29.9 43.7 -56.1 0.8 -11.5 -1.3 -21.1 -7 -32.8 -12.7 -25.7 -43.1 -39.6 -71 -32.4 -11.7 3 -20.9 8.2 -29.7 17 -24.7 24.5 -24.7 63.8 0.1 88.8 16.7 17 40.6 22.7 63.9 15.5z"/>
  <path d="M172.5 233.7 c-4 -1.9 -9 -7.6 -10.5 -12.2 -4.7 -14.2 9.1 -28.5 23.7 -24.6 15.4 4.2 19.3 25 6.5 34.8 -3 2.3 -4.8 2.8 -10.2 3 -4 0.2 -7.7 -0.2 -9.5 -1z m15.6 -3.7 c10.3 -5.3 11.5 -19.6 2.1 -26.8 -3 -2.3 -4.5 -2.7 -9.6 -2.7 -10 0 -15.8 5.8 -15.8 15.6 0 6.2 3 11.1 8.5 13.8 5.3 2.6 9.7 2.7 14.8 0.1z"/>
  <path d="M137.2 197.1 c-3.7 -1 -9.6 -6.1 -11.6 -10.1 -4.8 -9.3 -0.9 -21.2 8.4 -26 4.8 -2.5 12.9 -2.6 17.6 -0.4 7.6 3.6 12.3 13.5 10.4 21.9 -1 4.5 -3.3 7.8 -8.1 11.7 -3.9 3.2 -10.9 4.3 -16.7 2.9z m15 -5.6 c6.7 -5 8.8 -15.2 4.5 -21.6 -2.6 -3.9 -9.7 -7.9 -14.2 -7.9 -3.7 0 -10.2 3.6 -12.8 7.2 -1.1 1.5 -2.2 4.9 -2.5 7.7 -0.4 4.1 0 5.8 2.1 9.4 1.5 2.4 4.1 5.2 5.9 6.1 4.4 2.2 13.4 1.7 17 -0.9z"/>
  <path d="M211.6 196.6 c-7.8 -2.9 -12.6 -9.9 -12.6 -18.5 0 -10.9 8.1 -19.1 18.7 -19.1 6.8 0 11 1.8 15 6.3 5.7 6.5 6.6 13.4 2.9 21.4 -4.2 9 -14.7 13.3 -24 9.9z m15.5 -5 c10 -6.8 9.1 -21.3 -1.6 -27.3 -5.1 -2.9 -8.9 -2.9 -14.5 0 -15.1 7.5 -9.5 29.7 7.4 29.7 3.8 0 6.1 -0.6 8.7 -2.4z"/>
  <path d="M173.6 159 c-3.9 -1.2 -8.5 -5.7 -10.7 -10.5 -6 -13 3.8 -27.6 18.6 -27.5 6.5 0.1 15.1 6.1 17.4 12.3 1.4 3.6 1.4 10.8 0 14.4 -1.2 3.4 -6.4 9 -10.1 10.9 -3 1.5 -10.6 1.7 -15.2 0.4z m14.4 -4.3 c3 -1.6 5.1 -3.7 6.7 -6.7 2.8 -5.3 2.9 -9.1 0.2 -14.6 -2.7 -5.6 -10.7 -9.9 -16.3 -8.8 -13.6 2.5 -18.5 18.9 -8.4 28 5.1 4.7 11.6 5.4 17.8 2.1z"/>
  <path d="M33 251.1 c0 -0.5 -0.2 -1.6 -0.6 -2.4 -0.4 -1 2.1 -2.4 9.5 -5.2 7.9 -2.9 10.1 -4.2 10.1 -5.7 0 -3.2 -2.4 -3.1 -12 0.7 -5.1 1.9 -9.4 3.4 -9.5 3.3 -0.1 -0.2 -0.8 -1.3 -1.4 -2.6 -1.3 -2.5 -2.1 -2 9.9 -6.2 7.4 -2.6 10.1 -4.6 9.3 -6.6 -0.8 -2.1 -3.2 -1.7 -12.4 1.6 -4.5 1.7 -8.8 2.9 -9.6 2.6 -2.3 -0.9 -1.5 -4.3 1.5 -5.4 9.7 -3.9 16.8 -6.2 18.9 -6.2 3.4 0 7.3 4.2 7.3 8 0 1.8 0.9 4.3 2 5.7 2.3 2.9 2.5 5.1 0.9 8.6 -1.4 3.1 -3.4 4.2 -13.4 7.8 -8.9 3.1 -10.5 3.4 -10.5 2z"/>
  <path d="M326.7 241.8 c-0.2 -0.7 0.4 -3.5 1.4 -6.1 2.1 -5.3 2.3 -6.7 1 -6.7 -0.5 0 -1.4 1.4 -2 3.2 -1.6 4.5 -4 6.8 -7 6.8 -3.2 0 -4.4 -0.8 -6 -3.8 -1.1 -2 -0.9 -3.4 1 -8.7 1.8 -5.2 2.5 -6.2 4.1 -5.7 2.8 0.7 3.1 2.3 1.3 6.5 -0.8 2 -1.5 4.3 -1.5 5.2 0 2.9 1.7 1.5 3.4 -2.9 3.8 -10 14.4 -7.1 12.3 3.4 -1.2 5.8 -3.5 10 -5.6 10 -1 0 -2.1 -0.6 -2.4 -1.2z"/>
  <path d="M24.5 191 c-8.6 -3.5 -9.1 -15.6 -1 -19.5 4.5 -2.1 6.6 -1.9 10.6 0.8 10.2 6.9 1.7 23.4 -9.6 18.7z"/>
  <path d="M328.4 190.6 c-4.5 -2 -7 -7.7 -5.5 -12.7 3 -10.1 17.2 -10.1 20.2 -0.1 1.5 5.1 -0.8 10.4 -5.6 12.6 -4 1.9 -5.1 1.9 -9.1 0.2z"/>
  <path d="M32.6 139 c-4.4 -1.7 -8.7 -3.7 -9.8 -4.6 -2.2 -2.1 -2.4 -8.6 -0.3 -10.4 0.8 -0.7 1.5 -2.3 1.5 -3.6 0 -3.8 2.1 -7.2 5.1 -8.5 2.6 -1 4.2 -0.7 12.7 2.3 8.8 3.1 9.7 3.7 9.4 5.8 -0.1 1.3 -0.4 2.5 -0.6 2.7 -0.2 0.2 -4.6 -1.2 -9.9 -3.1 -8.3 -3 -9.7 -3.3 -10.8 -2 -1.8 2.2 0.2 3.6 9.9 7 8 2.8 8.8 3.6 7.6 6.8 -0.5 1.3 -2 1 -10.1 -1.9 -5.3 -1.9 -10 -3.2 -10.5 -2.9 -0.4 0.3 -0.8 1.3 -0.8 2.3 0 1.4 2.2 2.6 9.3 5.1 5 1.9 9.3 3.4 9.4 3.5 0.1 0 0 1.1 -0.4 2.3 -0.7 2.8 -2.1 2.7 -11.7 -0.8z"/>
  <path d="M318.2 139.3 c-2.6 -2.3 -5.8 -12.1 -4.4 -13.5 1.9 -1.9 4 0 5.7 5.1 0.9 2.8 2.1 5.1 2.6 5.1 1.2 0 1.1 -0.7 -0.2 -4.5 -1.6 -4.4 -0.4 -8.3 2.8 -9.6 4.2 -1.6 6.9 0.5 9.4 7 1.9 5.2 1.9 5.6 0.3 6.8 -2.3 1.7 -3 1.1 -4.9 -4.7 -1.9 -5.6 -4.2 -7 -3 -1.7 0.4 1.7 0.9 4.2 1.2 5.4 0.6 2.5 -2.8 6.3 -5.6 6.3 -1 0 -2.8 -0.8 -3.9 -1.7z"/>
  <path d="M301.4 104.5 c-0.3 -0.8 -0.3 -1.8 0 -2.3 0.6 -1 14 -9.2 15 -9.2 0.3 0 0.6 0.9 0.6 1.9 0 1 0.6 2.1 1.4 2.4 0.8 0.3 2.3 1.8 3.2 3.2 1.6 2.5 1.6 2.7 0 4.3 -1.6 1.6 -1.8 1.5 -3.7 -1 -2.5 -3.4 -4.2 -3.5 -9.8 -0.3 -5 2.9 -6 3 -6.7 1z"/>
  <path d="M53.4 101 c-6.3 -2.5 -8.5 -11.7 -3.9 -16.3 6.6 -6.5 17.5 -2 17.5 7.3 -0.1 7.1 -7 11.7 -13.6 9z m7.1 -6 c2.2 -2.5 1.4 -6.3 -1.9 -7.8 -5.2 -2.4 -9.1 4.9 -4.4 8.2 2.9 2.1 4.1 2 6.3 -0.4z"/>
  <path d="M288.1 86.6 c-5.9 -3.3 -6.7 -10.2 -1.7 -15.2 2.7 -2.7 4.2 -3.4 7.4 -3.4 5.2 0 9.2 3.8 9.2 8.6 l0 3.4 -6.4 0 c-7.1 0 -9.2 1.2 -4.7 2.8 2.3 0.8 2.8 1.5 2.4 3.1 -0.6 2.4 -2.7 2.6 -6.2 0.7z m8.7 -11.8 c-0.7 -1.9 -5.3 -2.1 -6.8 -0.4 -1.1 1.4 -0.7 1.6 3 1.6 2.9 0 4 -0.4 3.8 -1.2z"/>
  <path d="M75.3 70.7 c-8.4 -4.2 -9.8 -5.8 -6.5 -7.6 1.4 -0.7 3.1 -0.2 7 1.9 2.9 1.5 5.2 2.5 5.2 2 0 -0.4 -1 -3.1 -2.1 -5.9 -2.1 -5 -2.1 -5.2 -0.3 -6.5 1 -0.8 2.2 -1.2 2.5 -1 0.4 0.2 2.1 4.4 3.9 9.4 2.6 7.3 3 9.3 2 10.5 -1.7 2.1 -2.4 1.9 -11.7 -2.8z"/>
  <path d="M265 65.2 c-3.6 -3.6 -3.9 -7.1 -0.9 -11.9 1.2 -1.8 1.9 -4 1.6 -4.7 -0.7 -1.8 1.5 -4.8 3.1 -4.4 0.6 0.2 2.2 -1 3.4 -2.5 2.1 -2.5 2.5 -2.7 4.2 -1.4 1.9 1.4 1.9 1.5 -0.3 4.3 l-2.3 2.9 2.7 2.1 c2 1.6 2.5 2.7 2 4.3 -0.8 2.6 -1.6 2.6 -4.8 0.1 l-2.5 -2 -2.1 2.9 c-2.6 3.7 -2.7 5.7 -0.1 7.3 2.4 1.5 2.5 3.1 0.5 4.8 -1.2 1 -2 0.7 -4.5 -1.8z"/>
  <path d="M100.6 50.8 c-4.6 -7.6 -4.8 -8.2 -3.1 -9.4 1 -0.7 2.1 -1.1 2.5 -0.9 0.4 0.3 2.7 3.7 5 7.6 3.2 5.3 4 7.6 3.3 8.8 -1.8 2.9 -2.8 2.1 -7.7 -6.1z"/>
  <path d="M236 49.4 c-1.9 -0.8 -4.3 -1.7 -5.2 -2 -2 -0.7 -2.3 -2.1 -0.9 -4.3 0.8 -1.2 1.7 -1.1 6.1 0.7 5.7 2.4 7 2.6 7 1.4 0 -0.5 -1.8 -1.6 -4 -2.5 -6.3 -2.5 -7.3 -8.5 -1.8 -11.6 2.3 -1.3 3.1 -1.2 8.2 0.8 5.5 2.3 6.4 3.3 4.7 6 -0.7 1.1 -1.7 0.9 -5.6 -0.8 -5.6 -2.5 -5.5 -2.5 -5.5 -0.7 0 0.8 1.3 1.8 2.8 2.4 6 2.1 7.9 6.5 4.2 10.2 -2.3 2.3 -5.1 2.4 -10 0.4z"/>
  <path d="M122.7 44.2 c-3.5 -3.7 -4.3 -8.1 -2.3 -12 2 -3.8 4.4 -5.2 9.1 -5.2 4.5 0 5.2 1.6 3.1 7.7 -2.2 6.5 -2.1 8.5 0.4 5.5 1.6 -1.9 2.3 -2.1 4 -1.2 2.2 1.2 2 2.1 -1.3 5.8 -3.1 3.3 -9.5 3.1 -13 -0.6z m4.9 -9 c0.5 -2.7 0.4 -3.1 -0.9 -2.6 -2 0.7 -2.9 3.2 -2.1 5.6 0.8 2.6 2.2 1.2 3 -3z"/>
  <path d="M212.4 40.3 c-0.8 -1.3 -1.4 -1.4 -3.1 -0.5 -1.2 0.7 -3.5 0.9 -5.1 0.6 -8 -1.6 -10.5 -12 -4.3 -17.6 3.7 -3.3 8.4 -3.7 12 -0.9 1.3 1 3.2 1.6 4.1 1.4 1.6 -0.4 1.6 0.1 0.2 8.4 -1.5 9.6 -2.2 11.1 -3.8 8.6z m-3.6 -5.9 c3.9 -2.7 1.9 -9.4 -2.8 -9.4 -2 0 -5 3.5 -5 5.7 0 1.4 3.5 5.3 4.8 5.3 0.4 0 1.8 -0.7 3 -1.6z"/>
  <path d="M93.3 39.3 c-1.8 -0.7 -1.6 -5 0.2 -5.7 3.6 -1.4 6.1 2.4 3.3 5.2 -1.3 1.3 -1.6 1.3 -3.5 0.5z"/>
  <path d="M154.6 39.2 c-0.3 -0.5 -0.8 -5.6 -1.2 -11.4 l-0.7 -10.4 2.8 -2.2 c1.9 -1.5 4 -2.2 6.9 -2.1 2.2 0.1 5.4 -0.2 6.9 -0.6 3.8 -1 7.4 1 8.6 4.9 0.6 1.7 1.3 7 1.7 11.9 l0.7 8.7 -2.5 0 c-2.4 0 -2.5 -0.3 -3.5 -9.6 -1.1 -10.2 -2.3 -12.8 -4.8 -10.3 -1.2 1.2 -1.3 2.7 -0.5 8.9 1.4 11.4 1.4 12 -1.4 12 -2.5 0 -2.5 0.2 -4.2 -13.7 -0.7 -5.6 -2.7 -8.4 -4.6 -6.5 -0.7 0.7 -0.7 3.9 -0.1 10.4 0.6 5.1 0.8 9.6 0.6 10.1 -0.6 1 -4.1 0.9 -4.7 -0.1z"/>
 </g>
</svg>